  0
SECTION
  2
HEADER
  9
$ACADVER
  1
AC1009
  9
$INSBASE
 10
0.0
 20
0.0
 30
0.0
  9
$EXTMIN
 10
-0.0000051842471294
 20
-0.0000019436265575
 30
0.0
  9
$EXTMAX
 10
460.99999685110049
 20
349.00000325353108
 30
0.0
  9
$LIMMIN
 10
0.0
 20
0.0
  9
$LIMMAX
 10
420.0
 20
297.0
  9
$ORTHOMODE
 70
     0
  9
$REGENMODE
 70
     1
  9
$FILLMODE
 70
     1
  9
$QTEXTMODE
 70
     0
  9
$MIRRTEXT
 70
     0
  9
$DRAGMODE
 70
     2
  9
$LTSCALE
 40
1.0
  9
$OSMODE
 70
   423
  9
$ATTMODE
 70
     1
  9
$TEXTSIZE
 40
2.5
  9
$TRACEWID
 40
1.0
  9
$TEXTSTYLE
  7
STANDARD
  9
$CLAYER
  8
0
  9
$CELTYPE
  6
BYLAYER
  9
$CECOLOR
 62
   256
  9
$DIMSCALE
 40
1.0
  9
$DIMASZ
 40
2.5
  9
$DIMEXO
 40
0.625
  9
$DIMDLI
 40
3.75
  9
$DIMRND
 40
0.0
  9
$DIMDLE
 40
0.0
  9
$DIMEXE
 40
1.25
  9
$DIMTP
 40
0.0
  9
$DIMTM
 40
0.0
  9
$DIMTXT
 40
2.5
  9
$DIMCEN
 40
2.5
  9
$DIMTSZ
 40
0.0
  9
$DIMTOL
 70
     0
  9
$DIMLIM
 70
     0
  9
$DIMTIH
 70
     0
  9
$DIMTOH
 70
     0
  9
$DIMSE1
 70
     0
  9
$DIMSE2
 70
     0
  9
$DIMTAD
 70
     1
  9
$DIMZIN
 70
     8
  9
$DIMBLK
  1

  9
$DIMASO
 70
     1
  9
$DIMSHO
 70
     1
  9
$DIMPOST
  1

  9
$DIMAPOST
  1

  9
$DIMALT
 70
     0
  9
$DIMALTD
 70
     3
  9
$DIMALTF
 40
0.03937007874016
  9
$DIMLFAC
 40
1.0
  9
$DIMTOFL
 70
     1
  9
$DIMTVP
 40
0.0
  9
$DIMTIX
 70
     0
  9
$DIMSOXD
 70
     0
  9
$DIMSAH
 70
     0
  9
$DIMBLK1
  1

  9
$DIMBLK2
  1

  9
$DIMSTYLE
  2
ISO-25
  9
$DIMCLRD
 70
     0
  9
$DIMCLRE
 70
     0
  9
$DIMCLRT
 70
     0
  9
$DIMTFAC
 40
1.0
  9
$DIMGAP
 40
0.625
  9
$LUNITS
 70
     2
  9
$LUPREC
 70
     4
  9
$SKETCHINC
 40
1.0
  9
$FILLETRAD
 40
0.0
  9
$AUNITS
 70
     0
  9
$AUPREC
 70
     0
  9
$MENU
  1
.
  9
$ELEVATION
 40
0.0
  9
$PELEVATION
 40
0.0
  9
$THICKNESS
 40
0.0
  9
$LIMCHECK
 70
     0
  9
$BLIPMODE
 70
     0
  9
$CHAMFERA
 40
0.0
  9
$CHAMFERB
 40
0.0
  9
$SKPOLY
 70
     0
  9
$TDCREATE
 40
2458108.486374421
  9
$TDUPDATE
 40
2458528.5942643979
  9
$TDINDWG
 40
0.0056030671
  9
$TDUSRTIMER
 40
0.0056030093
  9
$USRTIMER
 70
     1
  9
$ANGBASE
 50
0.0
  9
$ANGDIR
 70
     0
  9
$PDMODE
 70
     0
  9
$PDSIZE
 40
0.0
  9
$PLINEWID
 40
0.0
  9
$COORDS
 70
     1
  9
$SPLFRAME
 70
     0
  9
$SPLINETYPE
 70
     6
  9
$SPLINESEGS
 70
     8
  9
$ATTDIA
 70
     1
  9
$ATTREQ
 70
     1
  9
$HANDLING
 70
     1
  9
$HANDSEED
  5
7BC
  9
$SURFTAB1
 70
     6
  9
$SURFTAB2
 70
     6
  9
$SURFTYPE
 70
     6
  9
$SURFU
 70
     6
  9
$SURFV
 70
     6
  9
$UCSNAME
  2

  9
$UCSORG
 10
0.0
 20
0.0
 30
0.0
  9
$UCSXDIR
 10
1.0
 20
0.0
 30
0.0
  9
$UCSYDIR
 10
0.0
 20
1.0
 30
0.0
  9
$PUCSNAME
  2

  9
$PUCSORG
 10
0.0
 20
0.0
 30
0.0
  9
$PUCSXDIR
 10
1.0
 20
0.0
 30
0.0
  9
$PUCSYDIR
 10
0.0
 20
1.0
 30
0.0
  9
$USERI1
 70
     0
  9
$USERI2
 70
     0
  9
$USERI3
 70
     0
  9
$USERI4
 70
     0
  9
$USERI5
 70
     0
  9
$USERR1
 40
0.0
  9
$USERR2
 40
0.0
  9
$USERR3
 40
0.0
  9
$USERR4
 40
0.0
  9
$USERR5
 40
0.0
  9
$WORLDVIEW
 70
     1
  9
$SHADEDGE
 70
     3
  9
$SHADEDIF
 70
    70
  9
$TILEMODE
 70
     1
  9
$MAXACTVP
 70
    64
  9
$PLIMCHECK
 70
     0
  9
$PEXTMIN
 10
0.0
 20
0.0
 30
0.0
  9
$PEXTMAX
 10
0.0
 20
0.0
 30
0.0
  9
$PLIMMIN
 10
0.0
 20
0.0
  9
$PLIMMAX
 10
12.0
 20
9.0
  9
$UNITMODE
 70
     0
  9
$VISRETAIN
 70
     1
  9
$PLINEGEN
 70
     0
  9
$PSLTSCALE
 70
     1
  0
ENDSEC
  0
SECTION
  2
TABLES
  0
TABLE
  2
VPORT
 70
     1
  0
VPORT
  2
*ACTIVE
 70
     0
 10
0.0
 20
0.0
 11
1.0
 21
1.0
 12
311.57719431511731
 22
182.3507005764925
 13
0.0
 23
0.0
 14
10.0
 24
10.0
 15
10.0
 25
10.0
 16
0.0
 26
0.0
 36
1.0
 17
0.0
 27
0.0
 37
0.0
 40
1008.255235466296
 41
1.9645042839657281
 42
50.0
 43
0.0
 44
0.0
 50
0.0
 51
0.0
 71
     0
 72
  1000
 73
     1
 74
     3
 75
     0
 76
     1
 77
     0
 78
     0
  0
ENDTAB
  0
TABLE
  2
LTYPE
 70
     1
  0
LTYPE
  2
CONTINUOUS
 70
     0
  3
Solid line
 72
    65
 73
     0
 40
0.0
  0
ENDTAB
  0
TABLE
  2
LAYER
 70
     1
  0
LAYER
  2
0
 70
     0
 62
     7
  6
CONTINUOUS
  0
ENDTAB
  0
TABLE
  2
STYLE
 70
     3
  0
STYLE
  2
STANDARD
 70
     0
 40
0.0
 41
1.0
 50
0.0
 71
     0
 42
2.5
  3
txt
  4

  0
STYLE
  2
ANNOTATIVE
 70
     0
 40
0.0
 41
1.0
 50
0.0
 71
     0
 42
0.2
  3
txt
  4

  0
STYLE
  2
¿ÕÕŒ“¿“»¬Õ€…
 70
     0
 40
0.0
 41
1.0
 50
0.0
 71
     0
 42
2.5
  3
txt
  4

  0
ENDTAB
  0
TABLE
  2
VIEW
 70
     0
  0
ENDTAB
  0
TABLE
  2
UCS
 70
     0
  0
ENDTAB
  0
TABLE
  2
APPID
 70
     9
  0
APPID
  2
ACAD
 70
     0
  0
APPID
  2
ACADANNOTATIVE
 70
     0
  0
APPID
  2
ACAD_PSEXT
 70
     0
  0
APPID
  2
ACADANNOPO
 70
     0
  0
APPID
  2
ACAD_DSTYLE_DIMJAG
 70
     0
  0
APPID
  2
ACAD_DSTYLE_DIMTALN
 70
     0
  0
APPID
  2
ACAD_MLEADERVER
 70
     0
  0
APPID
  2
ACAD_NAV_VCDISPLAY
 70
     0
  0
APPID
  2
ACDBDYNAMICBLOCKTRUENAME2
 70
     0
  0
ENDTAB
  0
TABLE
  2
DIMSTYLE
 70
     4
  0
DIMSTYLE
  2
STANDARD
 70
     0
  3

  4

  5

  6

  7

 40
1.0
 41
0.18
 42
0.0625
 43
0.38
 44
0.18
 45
0.0
 46
0.0
 47
0.0
 48
0.0
140
0.18
141
0.09
142
0.0
143
25.399999999999999
144
1.0
145
0.0
146
1.0
147
0.09
 71
     0
 72
     0
 73
     1
 74
     1
 75
     0
 76
     0
 77
     0
 78
     0
170
     0
171
     2
172
     0
173
     0
174
     0
175
     0
176
     0
177
     0
178
     0
  0
DIMSTYLE
  2
ANNOTATIVE
 70
     0
  3

  4

  5

  6

  7

 40
1.0
 41
0.18
 42
0.0625
 43
0.38
 44
0.18
 45
0.0
 46
0.0
 47
0.0
 48
0.0
140
0.18
141
0.09
142
0.0
143
25.399999999999999
144
1.0
145
0.0
146
1.0
147
0.09
 71
     0
 72
     0
 73
     1
 74
     1
 75
     0
 76
     0
 77
     0
 78
     0
170
     0
171
     2
172
     0
173
     0
174
     0
175
     0
176
     0
177
     0
178
     0
  0
DIMSTYLE
  2
¿ÕÕŒ“¿“»¬Õ€…
 70
     0
  3

  4

  5

  6

  7

 40
0.0
 41
2.5
 42
0.625
 43
3.75
 44
1.25
 45
0.0
 46
0.0
 47
0.0
 48
0.0
140
2.5
141
2.5
142
0.0
143
0.03937007874016
144
1.0
145
0.0
146
1.0
147
0.625
 71
     0
 72
     0
 73
     0
 74
     0
 75
     0
 76
     0
 77
     1
 78
     8
170
     0
171
     3
172
     1
173
     0
174
     0
175
     0
176
     0
177
     0
178
     0
  0
DIMSTYLE
  2
ISO-25
 70
     0
  3

  4

  5

  6

  7

 40
1.0
 41
2.5
 42
0.625
 43
3.75
 44
1.25
 45
0.0
 46
0.0
 47
0.0
 48
0.0
140
2.5
141
2.5
142
0.0
143
0.03937007874016
144
1.0
145
0.0
146
1.0
147
0.625
 71
     0
 72
     0
 73
     0
 74
     0
 75
     0
 76
     0
 77
     1
 78
     8
170
     0
171
     3
172
     1
173
     0
174
     0
175
     0
176
     0
177
     0
178
     0
  0
ENDTAB
  0
ENDSEC
  0
SECTION
  2
BLOCKS
  0
BLOCK
  8
0
  2
$MODEL_SPACE
 70
     0
 10
0.0
 20
0.0
 30
0.0
  3
$MODEL_SPACE
  1

  0
ENDBLK
  5
651
  8
0
  0
BLOCK
 67
     1
  8
0
  2
$PAPER_SPACE
 70
     0
 10
0.0
 20
0.0
 30
0.0
  3
$PAPER_SPACE
  1

  0
ENDBLK
  5
64D
 67
     1
  8
0
  0
BLOCK
  8
0
  2
*U2
 70
     1
 10
0.0
 20
0.0
 30
0.0
  3
*U2
  1

  0
CIRCLE
  5
666
  8
0
  6
CONTINUOUS
 62
     7
 10
0.0
 20
0.0000000000000284
 30
0.0
 40
1.25
  0
ENDBLK
  5
667
  8
0
  0
BLOCK
  8
0
  2
*U3
 70
     1
 10
0.0
 20
0.0
 30
0.0
  3
*U3
  1

  0
INSERT
  5
66A
  8
0
  6
BYBLOCK
 62
     0
  2
*U2
 10
0.0
 20
0.0
 30
0.0
  0
INSERT
  5
66B
  8
0
  6
BYBLOCK
 62
     0
  2
*U2
 10
0.0000000000000015
 20
25.0
 30
0.0
  0
INSERT
  5
66C
  8
0
  6
BYBLOCK
 62
     0
  2
*U2
 10
0.0000000000000031
 20
50.0
 30
0.0
  0
INSERT
  5
66D
  8
0
  6
BYBLOCK
 62
     0
  2
*U2
 10
0.0000000000000046
 20
75.0
 30
0.0
  0
INSERT
  5
66E
  8
0
  6
BYBLOCK
 62
     0
  2
*U2
 10
0.0000000000000061
 20
100.0
 30
0.0
  0
INSERT
  5
66F
  8
0
  6
BYBLOCK
 62
     0
  2
*U2
 10
0.0000000000000077
 20
125.0
 30
0.0
  0
INSERT
  5
670
  8
0
  6
BYBLOCK
 62
     0
  2
*U2
 10
0.0000000000000092
 20
150.0
 30
0.0
  0
INSERT
  5
671
  8
0
  6
BYBLOCK
 62
     0
  2
*U2
 10
0.0000000000000107
 20
175.0
 30
0.0
  0
INSERT
  5
672
  8
0
  6
BYBLOCK
 62
     0
  2
*U2
 10
0.0000000000000122
 20
200.0
 30
0.0
  0
INSERT
  5
673
  8
0
  6
BYBLOCK
 62
     0
  2
*U2
 10
0.0000000000000138
 20
225.0
 30
0.0
  0
INSERT
  5
674
  8
0
  6
BYBLOCK
 62
     0
  2
*U2
 10
0.0000000000000153
 20
250.0
 30
0.0
  0
INSERT
  5
675
  8
0
  6
BYBLOCK
 62
     0
  2
*U2
 10
432.0
 20
0.0
 30
0.0
  0
INSERT
  5
676
  8
0
  6
BYBLOCK
 62
     0
  2
*U2
 10
432.0
 20
25.0
 30
0.0
  0
INSERT
  5
677
  8
0
  6
BYBLOCK
 62
     0
  2
*U2
 10
432.0
 20
50.0
 30
0.0
  0
INSERT
  5
678
  8
0
  6
BYBLOCK
 62
     0
  2
*U2
 10
432.0
 20
75.0
 30
0.0
  0
INSERT
  5
679
  8
0
  6
BYBLOCK
 62
     0
  2
*U2
 10
432.0
 20
100.0
 30
0.0
  0
INSERT
  5
67A
  8
0
  6
BYBLOCK
 62
     0
  2
*U2
 10
432.0
 20
125.0
 30
0.0
  0
INSERT
  5
67B
  8
0
  6
BYBLOCK
 62
     0
  2
*U2
 10
432.0
 20
150.0
 30
0.0
  0
INSERT
  5
67C
  8
0
  6
BYBLOCK
 62
     0
  2
*U2
 10
432.0
 20
175.0
 30
0.0
  0
INSERT
  5
67D
  8
0
  6
BYBLOCK
 62
     0
  2
*U2
 10
432.0
 20
200.0
 30
0.0
  0
INSERT
  5
67E
  8
0
  6
BYBLOCK
 62
     0
  2
*U2
 10
432.0
 20
225.0
 30
0.0
  0
INSERT
  5
67F
  8
0
  6
BYBLOCK
 62
     0
  2
*U2
 10
432.0
 20
250.0
 30
0.0
  0
ENDBLK
  5
680
  8
0
  0
BLOCK
  8
0
  2
*U6
 70
     1
 10
0.0
 20
0.0
 30
0.0
  3
*U6
  1

  0
INSERT
  5
6E0
  8
0
  6
BYBLOCK
 62
     0
  2
*U8
 10
0.0
 20
0.0
 30
0.0
  0
INSERT
  5
6E1
  8
0
  6
BYBLOCK
 62
     0
  2
*U8
 10
0.0000000000000015
 20
25.0
 30
0.0
  0
INSERT
  5
6E2
  8
0
  6
BYBLOCK
 62
     0
  2
*U8
 10
0.0000000000000031
 20
50.0
 30
0.0
  0
INSERT
  5
6E3
  8
0
  6
BYBLOCK
 62
     0
  2
*U8
 10
0.0000000000000046
 20
75.0
 30
0.0
  0
INSERT
  5
6E4
  8
0
  6
BYBLOCK
 62
     0
  2
*U8
 10
0.0000000000000061
 20
100.0
 30
0.0
  0
INSERT
  5
6E5
  8
0
  6
BYBLOCK
 62
     0
  2
*U8
 10
0.0000000000000077
 20
125.0
 30
0.0
  0
INSERT
  5
6E6
  8
0
  6
BYBLOCK
 62
     0
  2
*U8
 10
0.0000000000000092
 20
150.0
 30
0.0
  0
INSERT
  5
6E7
  8
0
  6
BYBLOCK
 62
     0
  2
*U8
 10
0.0000000000000107
 20
175.0
 30
0.0
  0
INSERT
  5
6E8
  8
0
  6
BYBLOCK
 62
     0
  2
*U8
 10
0.0000000000000122
 20
200.0
 30
0.0
  0
INSERT
  5
6E9
  8
0
  6
BYBLOCK
 62
     0
  2
*U8
 10
0.0000000000000138
 20
225.0
 30
0.0
  0
INSERT
  5
6EA
  8
0
  6
BYBLOCK
 62
     0
  2
*U8
 10
0.0000000000000153
 20
250.0
 30
0.0
  0
INSERT
  5
6EB
  8
0
  6
BYBLOCK
 62
     0
  2
*U8
 10
432.0
 20
0.0
 30
0.0
  0
INSERT
  5
6EC
  8
0
  6
BYBLOCK
 62
     0
  2
*U8
 10
432.0
 20
25.0
 30
0.0
  0
INSERT
  5
6ED
  8
0
  6
BYBLOCK
 62
     0
  2
*U8
 10
432.0
 20
50.0
 30
0.0
  0
INSERT
  5
6EE
  8
0
  6
BYBLOCK
 62
     0
  2
*U8
 10
432.0
 20
75.0
 30
0.0
  0
INSERT
  5
6EF
  8
0
  6
BYBLOCK
 62
     0
  2
*U8
 10
432.0
 20
100.0
 30
0.0
  0
INSERT
  5
6F0
  8
0
  6
BYBLOCK
 62
     0
  2
*U8
 10
432.0
 20
125.0
 30
0.0
  0
INSERT
  5
6F1
  8
0
  6
BYBLOCK
 62
     0
  2
*U8
 10
432.0
 20
150.0
 30
0.0
  0
INSERT
  5
6F2
  8
0
  6
BYBLOCK
 62
     0
  2
*U8
 10
432.0
 20
175.0
 30
0.0
  0
INSERT
  5
6F3
  8
0
  6
BYBLOCK
 62
     0
  2
*U8
 10
432.0
 20
200.0
 30
0.0
  0
INSERT
  5
6F4
  8
0
  6
BYBLOCK
 62
     0
  2
*U8
 10
432.0
 20
225.0
 30
0.0
  0
INSERT
  5
6F5
  8
0
  6
BYBLOCK
 62
     0
  2
*U8
 10
432.0
 20
250.0
 30
0.0
  0
ENDBLK
  5
6F6
  8
0
  0
BLOCK
  8
0
  2
*U8
 70
     1
 10
0.0
 20
0.0
 30
0.0
  3
*U8
  1

  0
CIRCLE
  5
6FB
  8
0
  6
CONTINUOUS
 62
     7
 10
0.0
 20
0.0000000000000284
 30
0.0
 40
1.25
  0
ENDBLK
  5
6FC
  8
0
  0
ENDSEC
  0
SECTION
  2
ENTITIES
  0
CIRCLE
  5
6BB
  8
0
  6
CONTINUOUS
 62
     7
 10
77.499996851100605
 20
332.00000325353108
 30
0.0
 40
3.0
  0
CIRCLE
  5
6BC
  8
0
  6
CONTINUOUS
 62
     7
 10
383.4999968511006
 20
332.00000325353108
 30
0.0
 40
3.0
  0
CIRCLE
  5
6BD
  8
0
  6
CONTINUOUS
 62
     7
 10
394.4999968511006
 20
327.50000325353108
 30
0.0
 40
1.5
  0
CIRCLE
  5
6BE
  8
0
  6
CONTINUOUS
 62
     7
 10
66.499996851100605
 20
327.50000325353108
 30
0.0
 40
1.5
  0
LINE
  5
6BF
  8
0
  6
CONTINUOUS
 62
     7
 10
421.39999685110058
 20
33.500003253531077
 30
0.0
 11
421.39999685110058
 21
23.50000325353108
 31
0.0
  0
ARC
  5
6C0
  8
0
  6
CONTINUOUS
 62
     7
 10
423.49999685110049
 20
23.50000325353108
 30
0.0
 40
2.1000000000000201
 50
180.0
 51
0.0
  0
LINE
  5
6C1
  8
0
  6
CONTINUOUS
 62
     7
 10
425.5999968511004
 20
23.50000325353108
 30
0.0
 11
425.5999968511004
 21
33.500003253531077
 31
0.0
  0
ARC
  5
6C2
  8
0
  6
CONTINUOUS
 62
     7
 10
423.49999685110049
 20
33.500003253531077
 30
0.0
 40
2.1000000000000201
 50
0.0
 51
180.0
  0
CIRCLE
  5
6C3
  8
0
  6
CONTINUOUS
 62
     7
 10
438.9999968511006
 20
343.00000325353108
 30
0.0
 40
1.599999999999965
  0
CIRCLE
  5
6C4
  8
0
  6
CONTINUOUS
 62
     7
 10
438.99999685110009
 20
312.00000325353108
 30
0.0
 40
1.599999999999965
  0
CIRCLE
  5
6C5
  8
0
  6
CONTINUOUS
 62
     7
 10
423.49999685110049
 20
327.50000325353108
 30
0.0
 40
11.50000000000005
  0
CIRCLE
  5
6C6
  8
0
  6
CONTINUOUS
 62
     7
 10
407.99999685110009
 20
312.00000325353108
 30
0.0
 40
1.5999999999999091
  0
CIRCLE
  5
6C7
  8
0
  6
CONTINUOUS
 62
     7
 10
21.999996851101059
 20
312.00000325353108
 30
0.0
 40
1.5999999999999941
  0
CIRCLE
  5
6C8
  8
0
  6
CONTINUOUS
 62
     7
 10
52.999996851101059
 20
312.00000325353108
 30
0.0
 40
1.5999999999999941
  0
CIRCLE
  5
6C9
  8
0
  6
CONTINUOUS
 62
     7
 10
52.999996851100597
 20
343.00000325353108
 30
0.0
 40
1.599999999999965
  0
CIRCLE
  5
6CA
  8
0
  6
CONTINUOUS
 62
     7
 10
407.9999968511006
 20
343.00000325353108
 30
0.0
 40
1.599999999999965
  0
CIRCLE
  5
6CB
  8
0
  6
CONTINUOUS
 62
     7
 10
21.999996851100612
 20
343.00000325353108
 30
0.0
 40
1.599999999999965
  0
CIRCLE
  5
6CC
  8
0
  6
CONTINUOUS
 62
     7
 10
37.499996851100597
 20
327.50000325353108
 30
0.0
 40
11.5
  0
POLYLINE
  5
6CD
  8
0
  6
CONTINUOUS
 62
     7
 66
     1
 10
0.0
 20
0.0
 30
0.0
 70
     1
  0
VERTEX
  5
78B
  8
0
  6
CONTINUOUS
 62
     7
 10
417.4999968511006
 20
296.50000325353108
 30
0.0
 42
0.4142135623730951
  0
VERTEX
  5
78C
  8
0
  6
CONTINUOUS
 62
     7
 10
409.4999968511006
 20
304.50000325353108
 30
0.0
  0
VERTEX
  5
78D
  8
0
  6
CONTINUOUS
 62
     7
 10
395.4999968511006
 20
304.50000325353108
 30
0.0
  0
VERTEX
  5
78E
  8
0
  6
CONTINUOUS
 62
     7
 10
395.4999968511006
 20
310.50000325353108
 30
0.0
  0
VERTEX
  5
78F
  8
0
  6
CONTINUOUS
 62
     7
 10
65.499996851100605
 20
310.50000325353108
 30
0.0
  0
VERTEX
  5
790
  8
0
  6
CONTINUOUS
 62
     7
 10
65.499996851100605
 20
304.50000325353108
 30
0.0
  0
VERTEX
  5
791
  8
0
  6
CONTINUOUS
 62
     7
 10
51.499996851100597
 20
304.50000325353108
 30
0.0
 42
0.4142135623730951
  0
VERTEX
  5
792
  8
0
  6
CONTINUOUS
 62
     7
 10
43.499996851100597
 20
296.50000325353108
 30
0.0
  0
VERTEX
  5
793
  8
0
  6
CONTINUOUS
 62
     7
 10
43.499996851100597
 20
49.500003253531077
 30
0.0
  0
VERTEX
  5
794
  8
0
  6
CONTINUOUS
 62
     7
 10
56.499996851100597
 20
25.50000325353108
 30
0.0
  0
VERTEX
  5
795
  8
0
  6
CONTINUOUS
 62
     7
 10
404.4999968511006
 20
25.50000325353108
 30
0.0
  0
VERTEX
  5
796
  8
0
  6
CONTINUOUS
 62
     7
 10
417.4999968511006
 20
49.500003253531077
 30
0.0
  0
SEQEND
  5
797
  8
0
  6
CONTINUOUS
 62
     7
  0
POLYLINE
  5
6CE
  8
0
  6
CONTINUOUS
 62
     7
 66
     1
 10
0.0
 20
0.0
 30
0.0
 70
     1
  0
VERTEX
  5
798
  8
0
  6
CONTINUOUS
 62
     7
 10
4.4999968511006037
 20
0.0000032535310766
 30
0.0
  0
VERTEX
  5
799
  8
0
  6
CONTINUOUS
 62
     7
 10
27.999996851100612
 20
0.0000032535310766
 30
0.0
  0
VERTEX
  5
79A
  8
0
  6
CONTINUOUS
 62
     7
 10
27.999996851100612
 20
15.50000325353108
 30
0.0
  0
VERTEX
  5
79B
  8
0
  6
CONTINUOUS
 62
     7
 10
46.999996851100597
 20
15.50000325353108
 30
0.0
  0
VERTEX
  5
79C
  8
0
  6
CONTINUOUS
 62
     7
 10
46.999996851100597
 20
0.0000032535310766
 30
0.0
  0
VERTEX
  5
79D
  8
0
  6
CONTINUOUS
 62
     7
 10
413.9999968511006
 20
0.0000032535310766
 30
0.0
  0
VERTEX
  5
79E
  8
0
  6
CONTINUOUS
 62
     7
 10
413.9999968511006
 20
15.50000325353108
 30
0.0
  0
VERTEX
  5
79F
  8
0
  6
CONTINUOUS
 62
     7
 10
432.9999968511006
 20
15.50000325353108
 30
0.0
  0
VERTEX
  5
7A0
  8
0
  6
CONTINUOUS
 62
     7
 10
432.9999968511006
 20
0.0000032535310766
 30
0.0
  0
VERTEX
  5
7A1
  8
0
  6
CONTINUOUS
 62
     7
 10
445.9999968511006
 20
0.0000032535310766
 30
0.0
  0
VERTEX
  5
7A2
  8
0
  6
CONTINUOUS
 62
     7
 10
445.9999968511006
 20
10.00000325353108
 30
0.0
 42
-0.4142135623730951
  0
VERTEX
  5
7A3
  8
0
  6
CONTINUOUS
 62
     7
 10
450.9999968511006
 20
15.00000325353108
 30
0.0
  0
VERTEX
  5
7A4
  8
0
  6
CONTINUOUS
 62
     7
 10
460.99999685110049
 20
15.00000325353108
 30
0.0
  0
VERTEX
  5
7A5
  8
0
  6
CONTINUOUS
 62
     7
 10
460.99999685110049
 20
305.00000325353108
 30
0.0
  0
VERTEX
  5
7A6
  8
0
  6
CONTINUOUS
 62
     7
 10
452.49999685110049
 20
305.00000325353108
 30
0.0
  0
VERTEX
  5
7A7
  8
0
  6
CONTINUOUS
 62
     7
 10
449.4999968511006
 20
308.00000325353108
 30
0.0
  0
VERTEX
  5
7A8
  8
0
  6
CONTINUOUS
 62
     7
 10
449.4999968511006
 20
349.00000325353108
 30
0.0
  0
VERTEX
  5
7A9
  8
0
  6
CONTINUOUS
 62
     7
 10
11.49999685110151
 20
349.00000325353108
 30
0.0
  0
VERTEX
  5
7AA
  8
0
  6
CONTINUOUS
 62
     7
 10
11.49999685110151
 20
308.00000325353108
 30
0.0
  0
VERTEX
  5
7AB
  8
0
  6
CONTINUOUS
 62
     7
 10
8.499996851101514
 20
305.00000325353108
 30
0.0
  0
VERTEX
  5
7AC
  8
0
  6
CONTINUOUS
 62
     7
 10
-0.0000031488993955
 20
305.00000325353108
 30
0.0
  0
VERTEX
  5
7AD
  8
0
  6
CONTINUOUS
 62
     7
 10
-0.0000031488993955
 20
4.5000032535310757
 30
0.0
  0
SEQEND
  5
7AE
  8
0
  6
CONTINUOUS
 62
     7
  0
LINE
  5
6CF
  8
0
  6
CONTINUOUS
 62
     7
 10
35.399996851100703
 20
33.500003253531077
 30
0.0
 11
35.399996851100703
 21
23.50000325353108
 31
0.0
  0
ARC
  5
6D0
  8
0
  6
CONTINUOUS
 62
     7
 10
37.499996851100597
 20
23.50000325353108
 30
0.0
 40
2.1000000000000201
 50
180.0
 51
0.0
  0
LINE
  5
6D1
  8
0
  6
CONTINUOUS
 62
     7
 10
39.599996851100521
 20
23.50000325353108
 30
0.0
 11
39.599996851100521
 21
33.500003253531077
 31
0.0
  0
ARC
  5
6D2
  8
0
  6
CONTINUOUS
 62
     7
 10
37.499996851100597
 20
33.500003253531077
 30
0.0
 40
2.0999999999999921
 50
0.0
 51
180.0
  0
POLYLINE
  5
6D3
  8
0
 62
     7
 66
     1
 10
0.0
 20
0.0
 30
0.0
 70
     1
  0
VERTEX
  5
7AF
  8
0
 62
     7
 10
441.9999968511006
 20
32.500003253531077
 30
0.0
  0
VERTEX
  5
7B0
  8
0
 62
     7
 10
441.9999968511006
 20
42.500003253531077
 30
0.0
 42
0.9999999999999998
  0
VERTEX
  5
7B1
  8
0
 62
     7
 10
438.9999968511006
 20
42.500003253531077
 30
0.0
  0
VERTEX
  5
7B2
  8
0
 62
     7
 10
438.9999968511006
 20
32.500003253531077
 30
0.0
 42
0.9999999999999998
  0
SEQEND
  5
7B3
  8
0
 62
     7
  0
POLYLINE
  5
6D4
  8
0
 62
     7
 66
     1
 10
0.0
 20
0.0
 30
0.0
 70
     1
  0
VERTEX
  5
7B4
  8
0
 62
     7
 10
451.4999968511006
 20
32.500003253531077
 30
0.0
 42
-0.9999999999999998
  0
VERTEX
  5
7B5
  8
0
 62
     7
 10
448.49999685110049
 20
32.500003253531077
 30
0.0
  0
VERTEX
  5
7B6
  8
0
 62
     7
 10
448.49999685110049
 20
42.500003253531077
 30
0.0
 42
-0.9999999999999998
  0
VERTEX
  5
7B7
  8
0
 62
     7
 10
451.4999968511006
 20
42.500003253531077
 30
0.0
  0
SEQEND
  5
7B8
  8
0
 62
     7
  0
CIRCLE
  5
6D5
  8
0
 10
140.499996851101
 20
327.50000325353108
 30
0.0
 40
1.25
  0
CIRCLE
  5
6D6
  8
0
 10
320.49999685110112
 20
327.50000325353108
 30
0.0
 40
1.25
  0
CIRCLE
  5
6D7
  8
0
 10
230.49999685110021
 20
327.50000325353108
 30
0.0
 40
1.25
  0
CIRCLE
  5
6D8
  8
0
  6
CONTINUOUS
 10
155.4999968511006
 20
15.50000325353062
 30
0.0
 40
1.25
  0
CIRCLE
  5
6D9
  8
0
 10
230.4999968511006
 20
15.50000325353108
 30
0.0
 40
1.25
  0
CIRCLE
  5
6DA
  8
0
  6
CONTINUOUS
 10
75.499996851100605
 20
15.500003253530171
 30
0.0
 40
1.25
  0
CIRCLE
  5
6DB
  8
0
  6
CONTINUOUS
 10
305.4999968511006
 20
15.50000325353062
 30
0.0
 40
1.25
  0
CIRCLE
  5
6DC
  8
0
  6
CONTINUOUS
 10
385.4999968511006
 20
15.500003253530171
 30
0.0
 40
1.25
  0
INSERT
  5
6DD
  8
0
  2
*U6
 10
14.49999685110015
 20
49.500003253531077
 30
0.0
  0
ENDSEC
  0
EOF
